<svg width="48" height="48" viewBox="0 0 48 48" fill="none" xmlns="http://www.w3.org/2000/svg">
<rect x="10" y="12" width="30" height="26" fill="white"/>
<path d="M3.99668 35.4277C3.98827 35.2706 3.98401 35.1124 3.98401 34.9531V18.8505L1.17192 23.7212C-1.16733 27.7729 0.107704 32.9196 3.99668 35.4277Z" fill="#3368DB"/>
<path d="M18.2852 43.6896H35.0657C35.2558 43.6896 35.4444 43.6835 35.6315 43.6716C33.2077 47.8183 27.886 49.2326 23.7212 46.8281L18.2852 43.6896Z" fill="#FECE00"/>
<path d="M43.8022 29.5198L46.8281 24.2788C49.2075 20.1575 47.8475 14.9034 43.8007 12.4455C43.8017 12.4995 43.8022 12.5536 43.8022 12.6079V29.5198Z" fill="#FA4E1D"/>
<path d="M28.9545 3.87145L24.2788 1.17193C20.2708 -1.14209 15.1914 0.0806037 12.6544 3.87169C12.6764 3.87153 12.6984 3.87145 12.7205 3.87145H28.9545Z" fill="#FFB3DA"/>
<path d="M35.0654 3.87109C39.8903 3.87126 43.8017 7.78256 43.8018 12.6074C44.294 21.0506 44.4439 25.937 43.8018 34.9531C43.8016 39.7779 39.8902 43.6893 35.0654 43.6895H12.7197C7.8949 43.6894 3.98358 39.7779 3.9834 34.9531C3.33757 26.226 3.33561 21.3353 3.9834 12.6074C3.98349 7.78252 7.89484 3.87119 12.7197 3.87109H35.0654ZM33.5029 15.0723C32.5753 15.0723 31.7564 15.5384 31.2676 16.249C31.1586 16.3503 31.0548 16.4604 30.9609 16.582L26.6699 22.1436V17.7832C26.6698 16.2861 25.4561 15.0724 23.959 15.0723C23.8449 15.0723 23.7324 15.0811 23.6221 15.0947C22.8667 15.1434 22.1345 15.502 21.6357 16.1484L17.126 21.9932V18C17.1259 16.5029 15.9121 15.2892 14.415 15.2891C12.9178 15.2891 11.7032 16.5028 11.7031 18V29.9287C11.7031 31.426 12.9177 32.6396 14.415 32.6396C15.2361 32.6396 15.9697 32.273 16.4668 31.6963C16.595 31.5831 16.7159 31.4578 16.8242 31.3174L21.2481 25.583V29.7119C21.2481 29.8108 21.2534 29.9087 21.2637 30.0049C21.2399 30.8476 21.6038 31.6897 22.3223 32.2441C23.515 33.1643 25.228 32.9435 26.1484 31.751L30.792 25.7314V29.7119C30.792 31.2092 32.0056 32.4229 33.5029 32.4229C35.0001 32.4227 36.2139 31.2091 36.2139 29.7119V17.7832C36.2138 16.2861 35 15.0724 33.5029 15.0723Z" fill="#102126"/>
</svg>
